<?xml version="1.0" encoding="utf-8"?>
<svg xmlns="http://www.w3.org/2000/svg" viewBox="81 78 292 493" width="292px" height="493px">
  <defs>
    <linearGradient id="linear-gradient" x1="310.5" y1="549" x2="310.5" y2="137" gradientUnits="userSpaceOnUse">
      <stop offset="0" stop-color="#302a36"/>
      <stop offset="1" stop-color="#fff"/>
    </linearGradient>
    <linearGradient id="linear-gradient-2" x1="142.5" y1="100" x2="142.5" y2="416" href="#linear-gradient"/>
    <style>
      .cls-1 {
        fill: #302a36;
        stroke: #000;
      }

      .cls-1, .cls-2, .cls-3, .cls-4 {
        stroke-width: 1px;
      }

      .cls-2, .cls-5 {
        fill: #fff;
      }

      .cls-2, .cls-3, .cls-4 {
        stroke: #fff;
      }

      .cls-3, .cls-4, .cls-5 {
        fill-rule: evenodd;
      }

      .cls-3 {
        fill: url(#linear-gradient);
      }

      .cls-4 {
        fill: url(#linear-gradient-2);
      }
    </style>
  </defs>
  <rect class="cls-2" x="249" y="78" width="124" height="493" rx="15" ry="15" transform="matrix(0.9999999999999999, 0, 0, 0.9999999999999999, -1.4210854715202004e-14, 0)"/>
  <path id="_127_1" data-name="127 1" class="cls-3" d="M285.627,137h49.5V492.239H360L310.5,549,261,492.239h24.627V137Z" transform="matrix(0.9999999999999999, 0, 0, 0.9999999999999999, -1.4210854715202004e-14, 0)"/>
  <rect id="Rectangle_1_copy" data-name="Rectangle 1 copy" class="cls-2" x="81" y="79" width="124" height="394" rx="15" ry="15" transform="matrix(0.9999999999999999, 0, 0, 0.9999999999999999, -1.4210854715202004e-14, 0)"/>
  <path id="_127_1_copy" data-name="127 1 copy" class="cls-4" d="M167.373,416h-49.5V156.761H93L142.5,100,192,156.761H167.373V416Z" transform="matrix(0.9999999999999999, 0, 0, 0.9999999999999999, -1.4210854715202004e-14, 0)"/>
</svg>