<svg xmlns="http://www.w3.org/2000/svg" id="Layer_1" xmlns:xlink="http://www.w3.org/1999/xlink" width="951.4" height="207.6" viewBox="0 0 951.4 207.6" data-app="Xyris">
    <defs>
        <linearGradient id="linearGradient-ssyoi6JCMX4Ra1XZh3eSiR" x1="4.24" y1="95.66" x2="184.96" y2="95.66" gradientTransform="matrix(0.0058234,0,0,0.0058234,-0.0508968,-0.0570697)">
            <stop offset="0" stop-color="#2484c6">
            </stop>
            <stop offset="1" stop-color="#2484c6" stop-opacity="0">
            </stop>
        </linearGradient>
        <linearGradient id="linearGradient-78vqw8Laed8TQQm1jUNT9T" x1="344.51" y1="-279.95" x2="532.23" y2="-279.95" gradientTransform="matrix(0.0005673,-0.0057957,0.0057957,0.0005673,1.8738643,3.1994527)">
            <stop offset="0" stop-color="#2484c6">
            </stop>
            <stop offset="1" stop-color="#2484c6" stop-opacity="0">
            </stop>
        </linearGradient>
        <linearGradient id="linearGradient-hzWLuuNLDbp4qktp6y46KH" x1="5.24" y1="95.66" x2="183.96" y2="95.66" gradientTransform="matrix(0,-0.0058234,0.0058234,0,-0.0570696,1.0508967)">
            <stop offset="0" stop-color="#b2e2f4">
            </stop>
            <stop offset="1" stop-color="#231f20">
            </stop>
        </linearGradient>
        <radialGradient id="radialGradient-pMMBhKJ39ei1aHedn15ypR" cx="94.8" cy="191.4" fx="94.8" fy="144.45" r="82.19" gradientTransform="matrix(0.0058311,0,0,0.0047351,-0.0662573,-0.3965672)">
            <stop offset=".09" stop-color="#fffefe">
            </stop>
            <stop offset=".54" stop-color="#78d1ee" stop-opacity=".5">
            </stop>
            <stop offset=".89" stop-color="#2484c6" stop-opacity="0">
            </stop>
        </radialGradient>
        <radialGradient id="radialGradient-k2ZAAVfVnggS3J7bQUEUvL" cx="180.52" cy="104.93" fx="180.52" fy="104.93" r="9.39" gradientTransform="matrix(0.0796813,0,0,0.0598988,-13.8769932,-5.7691226)">
            <stop offset="0" stop-color="#fffefe">
            </stop>
            <stop offset=".48" stop-color="#78d1ee" stop-opacity=".5">
            </stop>
            <stop offset=".75" stop-color="#2484c6" stop-opacity="0">
            </stop>
        </radialGradient>
        <radialGradient id="radialGradient-aPyd2uECJM1XZwviK9sact" cx="126.78" cy="45.85" fx="126.78" fy="45.85" r="9.39" gradientTransform="matrix(0,-0.0796813,0.0598988,0,-2.2279246,10.600598)">
            <stop offset="0" stop-color="#fffefe">
            </stop>
            <stop offset=".48" stop-color="#78d1ee" stop-opacity=".5">
            </stop>
            <stop offset=".75" stop-color="#2484c6" stop-opacity="0">
            </stop>
        </radialGradient>
    </defs>
    <circle id="inner_ring_glow" cx="94.6" cy="95.66" r="85.86" fill="none" stroke-miterlimit="10" stroke="url(#linearGradient-ssyoi6JCMX4Ra1XZh3eSiR)" stroke-width="9px" transform-origin="center" style="transform-box: fill-box;">
        <animateTransform attributeName="transform" type="rotate" begin="-0.00001" dur="3.00002" keyTimes="0; 1.0" values="0;-360" fill="freeze" additive="sum" calcMode="spline" keySplines="0 0 1 1" repeatCount="indefinite">
        </animateTransform>
    </circle>
    <circle id="wide_angle_glow" cx="94.6" cy="95.66" r="85.86" fill="none" stroke-miterlimit="10" opacity=".68" stroke="url(#linearGradient-78vqw8Laed8TQQm1jUNT9T)" stroke-width="16px" transform-origin="center" style="transform-box: fill-box;">
        <animateTransform attributeName="transform" type="rotate" begin="-0.00001" dur="3.00002" keyTimes="0; 1.0" values="0;360" fill="freeze" additive="sum" calcMode="spline" keySplines="0 0 1 1" repeatCount="indefinite">
        </animateTransform>
    </circle>
    <path d="M 94.5999984741211 9.800003051757812 A 85.86000061035156 85.86000061035156 0 0 1 180.45999908447266 95.66000366210938 A 85.86000061035156 85.86000061035156 0 0 1 94.5999984741211 181.52000427246094 A 85.86000061035156 85.86000061035156 0 0 1 8.739997863769531 95.66000366210938 A 85.86000061035156 85.86000061035156 0 0 1 94.5999984741211 9.800003051757812 Z" fill="none" stroke="url(#linearGradient-hzWLuuNLDbp4qktp6y46KH)" stroke-width="7px" transform-origin="center" id="motion-path-noXy6bd6YHcJvtmY3MZo6U" style="transform-box: fill-box;">
        <animateTransform attributeName="transform" type="rotate" begin="-0.00001" dur="3.00002" keyTimes="0; 1.0" values="0;-360" fill="freeze" additive="sum" calcMode="spline" keySplines="0 0 1 1" repeatCount="indefinite">
        </animateTransform>
    </path>
    <rect id="surface_shine" y="173.82" width="193.79" height="33.79" fill="url(#radialGradient-pMMBhKJ39ei1aHedn15ypR)">
        <animate attributeName="opacity" keyTimes="0; 0.5; 1" values="0.8;1;0.8" begin="-0.00001" dur="3.00002" fill="freeze" calcMode="spline" keySplines="0 0 1 1; 0 0 1 1" repeatCount="indefinite">
        </animate>
    </rect>
    <g>
        <path d="M274.48,67.59h11.8v94.9h-11.8v-38.78c-5.88,8.95-14.42,13.42-25.62,13.42-9.49,0-17.58-3.46-24.27-10.37-6.69-6.91-10.03-15.34-10.03-25.29s3.34-18.37,10.03-25.29c6.69-6.91,14.78-10.37,24.27-10.37,11.21,0,19.75,4.47,25.62,13.42v-11.66ZM250.35,125.75c6.87,0,12.61-2.33,17.22-6.98,4.61-4.65,6.91-10.42,6.91-17.29s-2.3-12.63-6.91-17.29c-4.61-4.65-10.35-6.98-17.22-6.98s-12.47,2.33-17.08,6.98c-4.61,4.66-6.91,10.42-6.91,17.29s2.3,12.63,6.91,17.29c4.61,4.66,10.3,6.98,17.08,6.98Z" fill="#fff">
        </path>
        <path d="M350.94,67.59h11.79v67.79h-11.79v-9.76c-4.79,7.68-12.11,11.52-21.96,11.52-7.95,0-14.33-2.51-19.12-7.52-4.79-5.02-7.19-11.82-7.19-20.41v-41.62h11.8v40.94c0,5.51,1.49,9.79,4.47,12.81,2.98,3.03,7.09,4.54,12.34,4.54,5.87,0,10.62-1.83,14.24-5.49,3.61-3.66,5.42-9.29,5.42-16.88v-35.93Z" fill="#fff">
        </path>
        <path d="M418.05,65.83c9.49,0,17.58,3.46,24.27,10.37,6.69,6.91,10.03,15.34,10.03,25.29s-3.35,18.37-10.03,25.29c-6.69,6.92-14.78,10.37-24.27,10.37-11.21,0-19.75-4.47-25.62-13.42v11.66h-11.8V40.48h11.8v38.77c5.87-8.95,14.42-13.42,25.62-13.42ZM416.56,125.75c6.78,0,12.47-2.33,17.08-6.98,4.61-4.65,6.91-10.42,6.91-17.29s-2.3-12.63-6.91-17.29c-4.61-4.65-10.3-6.98-17.08-6.98s-12.61,2.33-17.22,6.98c-4.61,4.66-6.91,10.42-6.91,17.29s2.3,12.63,6.91,17.29c4.61,4.66,10.35,6.98,17.22,6.98Z" fill="#fff">
        </path>
        <path d="M472.42,55.25c-2.26,0-4.16-.77-5.69-2.3-1.54-1.54-2.3-3.39-2.3-5.56s.77-4.04,2.3-5.63c1.54-1.58,3.43-2.37,5.69-2.37s4.02.79,5.56,2.37c1.54,1.58,2.31,3.46,2.31,5.63s-.77,4.02-2.31,5.56c-1.54,1.54-3.39,2.3-5.56,2.3ZM466.46,135.38v-67.79h11.8v67.79h-11.8Z" fill="#fff">
        </path>
        <path d="M528.14,137.14c-10.21,0-18.71-3.41-25.49-10.24-6.78-6.82-10.17-15.3-10.17-25.42s3.39-18.6,10.17-25.42c6.78-6.82,15.27-10.24,25.49-10.24,6.69,0,12.7,1.61,18.03,4.81,5.33,3.21,9.31,7.52,11.93,12.95l-9.9,5.69c-1.72-3.61-4.36-6.51-7.93-8.68-3.57-2.17-7.62-3.25-12.13-3.25-6.78,0-12.45,2.3-17.01,6.91-4.57,4.61-6.85,10.35-6.85,17.22s2.28,12.47,6.85,17.08c4.56,4.61,10.24,6.91,17.01,6.91,4.52,0,8.59-1.06,12.2-3.19,3.61-2.12,6.37-4.99,8.27-8.61l10.03,5.83c-2.89,5.33-7.05,9.61-12.47,12.81-5.42,3.21-11.44,4.81-18.03,4.81Z" fill="#fff">
        </path>
    </g>
    <g>
        <path d="M620.46,65.69c9.04,0,16.61,3.41,22.71,10.24,6.1,6.83,9.15,15.34,9.15,25.56s-3.05,18.73-9.15,25.56c-6.1,6.83-13.67,10.24-22.71,10.24-8.23,0-14.64-2.71-19.25-8.13v33.35h-22.51v-94.9h22.51v6.24c4.61-5.42,11.03-8.13,19.25-8.13ZM605.13,112.2c2.62,2.71,6.05,4.07,10.3,4.07s7.68-1.36,10.3-4.07c2.62-2.71,3.93-6.28,3.93-10.71s-1.31-8-3.93-10.71c-2.62-2.71-6.06-4.07-10.3-4.07s-7.68,1.36-10.3,4.07c-2.62,2.71-3.93,6.28-3.93,10.71s1.31,8,3.93,10.71Z" fill="#b2e2f4">
        </path>
        <path d="M695.02,137.28c-10.03,0-18.57-3.46-25.62-10.37-7.05-6.92-10.58-15.39-10.58-25.42s3.53-18.51,10.58-25.42,15.59-10.37,25.62-10.37,18.69,3.46,25.69,10.37c7,6.91,10.51,15.39,10.51,25.42s-3.5,18.51-10.51,25.42c-7.01,6.91-15.57,10.37-25.69,10.37ZM695.02,115.58c3.98,0,7.25-1.31,9.83-3.93,2.58-2.62,3.86-6.01,3.86-10.17s-1.29-7.55-3.86-10.17c-2.58-2.62-5.85-3.93-9.83-3.93s-7.12,1.31-9.69,3.93c-2.58,2.62-3.86,6.01-3.86,10.17s1.29,7.55,3.86,10.17c2.58,2.62,5.81,3.93,9.69,3.93Z" fill="#b2e2f4">
        </path>
        <path d="M763.62,80.2c1.26-4.43,3.8-7.86,7.59-10.3,3.8-2.44,8.04-3.66,12.74-3.66v24.95c-5.15-.81-9.83.14-14.03,2.85-4.2,2.71-6.3,7.14-6.3,13.29v28.06h-22.51v-67.79h22.51v12.61Z" fill="#b2e2f4">
        </path>
        <path d="M836.29,89.15h-14.1v19.66c0,2.98,1.08,4.84,3.25,5.56,2.17.72,5.78.95,10.85.68v20.34c-13.47,1.63-22.94.38-28.4-3.73-5.47-4.11-8.2-11.55-8.2-22.3v-20.2h-10.17v-21.56h10.17v-12.2l22.51-6.78v18.98h14.1v21.56Z" fill="#b2e2f4">
        </path>
        <path d="M893.37,67.59h22.51v67.79h-22.51v-6.24c-4.61,5.42-11.03,8.13-19.25,8.13-9.04,0-16.61-3.41-22.71-10.24-6.1-6.82-9.15-15.34-9.15-25.56s3.05-18.73,9.15-25.56c6.1-6.82,13.67-10.24,22.71-10.24,8.22,0,14.64,2.71,19.25,8.13v-6.24ZM868.83,112.2c2.62,2.71,6.05,4.07,10.3,4.07s7.68-1.36,10.3-4.07c2.62-2.71,3.93-6.28,3.93-10.71s-1.31-8-3.93-10.71c-2.62-2.71-6.06-4.07-10.3-4.07s-7.68,1.36-10.3,4.07c-2.62,2.71-3.93,6.28-3.93,10.71s1.31,8,3.93,10.71Z" fill="#b2e2f4">
        </path>
        <path d="M928.89,135.38V36.41h22.51v98.97h-22.51Z" fill="#b2e2f4">
        </path>
    </g>
    <rect id="p_left" x="61.98" y="36.14" width="30.34" height="123.1" rx="6" ry="6" fill="#b2e2f4">
    </rect>
    <rect id="p_right" x="100.88" y="36.14" width="30.34" height="99.55" rx="6" ry="6" fill="#b2e2f4">
    </rect>
    <ellipse id="side_bulb" cx="180.47" cy="100.13" rx="10.04" ry="35.56" fill="url(#radialGradient-k2ZAAVfVnggS3J7bQUEUvL)" transform-origin="center" transform="matrix(1,0,0,1,-180.47000122070312,-100.12998962402344)" style="transform-box: fill-box;">
        <animateMotion begin="-0.00001" dur="3.00002" keyTimes="0; 1" keyPoints="0.25;1.0" fill="freeze" keySplines="0 0 1 1" repeatCount="indefinite" calcMode="spline">
            <mpath href="#motion-path-noXy6bd6YHcJvtmY3MZo6U">
            </mpath>
        </animateMotion>
        <animate attributeName="opacity" keyTimes="0; 1.0" values="0;1" begin="-0.00001" dur="3.00002" fill="freeze" calcMode="spline" keySplines="0 0 0.08 0.95" repeatCount="indefinite">
        </animate>
        <animateTransform attributeName="transform" type="rotate" begin="-0.00001" dur="3.00002" keyTimes="0; 1.0" values="0;270" fill="freeze" additive="sum" calcMode="spline" keySplines="0 0 1 1" repeatCount="indefinite">
        </animateTransform>
    </ellipse>
    <ellipse id="top_bulb" cx="94.6" cy="10.04" rx="35.56" ry="10.04" fill="url(#radialGradient-aPyd2uECJM1XZwviK9sact)" transform-origin="center" transform="matrix(1,0,0,1,-94.5999984741211,-10.039999961853027)" style="transform-box: fill-box;">
        <animateMotion begin="-0.00001" dur="3.00002" keyTimes="0; 1.0" keyPoints="0;0.75" fill="freeze" keySplines="0 0 1 1" repeatCount="indefinite" calcMode="spline">
            <mpath href="#motion-path-jmf4QmrsZ3MZS8DkkqcCFN">
            </mpath>
        </animateMotion>
        <animateTransform attributeName="transform" type="rotate" begin="-0.00001" dur="3.00002" keyTimes="0; 1.0" values="0.02655; 270" fill="freeze" additive="sum" calcMode="spline" keySplines="0 0 1 1" repeatCount="indefinite">
        </animateTransform>
        <animate attributeName="opacity" keyTimes="0; 1" values="1; 0" begin="-0.00001" dur="3.00002" fill="freeze" calcMode="spline" keySplines="0 0 0.05 0.97" repeatCount="indefinite">
        </animate>
    </ellipse>
    <path d="M 94.5999984741211 10.040000915527344 A 85.86000061035156 85.86000061035156 0 0 1 180.45999908447266 95.9000015258789 A 85.86000061035156 85.86000061035156 0 0 1 94.5999984741211 181.76000213623047 A 85.86000061035156 85.86000061035156 0 0 1 8.739997863769531 95.9000015258789 A 85.86000061035156 85.86000061035156 0 0 1 94.5999984741211 10.040000915527344 Z" fill="none" stroke="#fff" stroke-width="3px" id="motion-path-jmf4QmrsZ3MZS8DkkqcCFN">
    </path>
</svg>
