<?xml version="1.0" encoding="utf-8"?>
<svg xmlns="http://www.w3.org/2000/svg" viewBox="52.301 38.188 1575.109 493" width="1575.11px" height="493px">
  <defs>
    <linearGradient id="linear-gradient" x1="310.5" y1="549" x2="310.5" y2="137" gradientUnits="userSpaceOnUse" gradientTransform="matrix(1, 0, 0, 1, -28.695374, -39.812299)">
      <stop offset="0" stop-color="#302a36"/>
      <stop offset="1" stop-color="#fff"/>
    </linearGradient>
    <linearGradient id="linear-gradient-2" x1="142.5" y1="100" x2="142.5" y2="416" href="#linear-gradient" gradientTransform="matrix(1, 0, 0, 1, -28.695374, -39.812299)"/>
    <style>
      .cls-1 {
        fill: #302a36;
        stroke: #000;
      }

      .cls-1, .cls-2, .cls-3, .cls-4 {
        stroke-width: 1px;
      }

      .cls-2, .cls-5 {
        fill: #fff;
      }

      .cls-2, .cls-3, .cls-4 {
        stroke: #fff;
      }

      .cls-3, .cls-4, .cls-5 {
        fill-rule: evenodd;
      }

      .cls-3 {
        fill: url(#linear-gradient);
      }

      .cls-4 {
        fill: url(#linear-gradient-2);
      }
    </style>
  </defs>
  <rect class="cls-2" x="220.301" y="38.188" width="124" height="493" rx="15" ry="15" style="stroke-width: 1;"/>
  <path id="_127_1" data-name="127 1" class="cls-3" d="M 256.931 97.188 L 306.431 97.188 L 306.431 452.427 L 331.301 452.427 L 281.801 509.188 L 232.301 452.427 L 256.931 452.427 L 256.931 97.188 Z" style="stroke-width: 1;"/>
  <rect id="Rectangle_1_copy" data-name="Rectangle 1 copy" class="cls-2" x="52.301" y="39.188" width="124" height="394" rx="15" ry="15" style="stroke-width: 1;"/>
  <path id="_127_1_copy" data-name="127 1 copy" class="cls-4" d="M 138.681 376.188 L 89.181 376.188 L 89.181 116.949 L 64.301 116.949 L 113.801 60.188 L 163.301 116.949 L 138.681 116.949 L 138.681 376.188 Z" style="stroke-width: 1;"/>
  <path id="qswap" class="cls-5" d="M 576.669 143.906 C 562.269 126.208 542.169 117.358 516.371 117.356 C 486.061 117.356 461.311 128.606 442.121 151.106 C 422.921 173.606 413.321 201.956 413.321 236.156 C 413.321 270.356 422.921 298.706 442.121 321.206 C 461.321 343.706 486.071 354.956 516.371 354.956 C 542.169 354.956 562.269 346.106 576.669 328.406 L 576.669 438.656 L 659.919 438.656 L 659.919 123.656 L 576.669 123.656 L 576.669 143.906 Z M 496.571 236.156 C 496.571 224.16 500.241 214.11 507.591 206.006 C 514.941 197.902 524.621 193.852 536.621 193.856 C 548.613 193.856 558.288 197.906 565.644 206.006 C 572.999 214.106 576.674 224.156 576.669 236.156 C 576.669 248.156 572.994 258.206 565.644 266.306 C 558.294 274.406 548.619 278.456 536.621 278.456 C 524.621 278.456 514.941 274.406 507.591 266.306 C 500.241 258.206 496.571 248.156 496.571 236.156 Z M 687.594 310.181 C 691.849 317.92 697.149 325.036 703.344 331.331 C 710.094 338.383 719.394 344.158 731.244 348.656 C 743.094 353.154 756.519 355.404 771.519 355.406 C 797.619 355.406 817.944 348.281 832.494 334.031 C 847.044 319.781 854.319 303.506 854.319 285.206 C 854.319 268.71 848.919 254.61 838.119 242.906 C 827.319 231.202 811.719 223.102 791.319 218.606 L 758.019 211.856 C 743.315 208.86 735.965 201.21 735.969 188.906 C 735.969 182.008 738.969 176.083 744.969 171.131 C 750.969 166.179 758.469 163.704 767.469 163.706 C 780.363 163.706 790.038 167.081 796.494 173.831 C 802.949 180.581 806.774 188.156 807.969 196.556 L 852.069 183.956 C 851.064 177.342 848.933 170.95 845.769 165.056 C 841.891 157.957 837.128 151.38 831.594 145.481 C 825.44 138.731 816.815 133.256 805.719 129.056 C 794.622 124.856 781.872 122.756 767.469 122.756 C 744.969 122.756 725.919 129.731 710.319 143.681 C 694.719 157.631 686.919 174.206 686.919 193.406 C 686.919 209.006 692.019 222.506 702.219 233.906 C 712.419 245.306 726.969 253.106 745.869 257.306 L 778.269 264.506 C 795.369 268.106 803.919 276.206 803.919 288.806 C 803.919 296.006 800.994 302.006 795.144 306.806 C 789.294 311.606 781.269 314.006 771.069 314.006 C 757.863 314.006 747.363 310.406 739.569 303.206 C 731.948 296.377 727.27 286.861 726.519 276.656 L 681.069 289.256 C 681.8 296.601 684.02 303.721 687.594 310.181 Z M 941.619 281.156 L 897.069 129.506 L 841.269 129.506 L 912.369 348.656 L 965.919 348.656 L 1019.02 191.156 L 1073.47 348.656 L 1125.67 348.656 L 1195.87 129.506 L 1142.77 129.506 L 1099.12 281.156 L 1047.37 129.506 L 993.369 129.506 L 941.619 281.156 Z M 1207.35 335.831 C 1220.99 348.881 1238.92 355.406 1261.12 355.406 C 1291.71 355.406 1314.21 343.856 1328.62 320.756 C 1328.62 334.86 1329.37 344.16 1330.87 348.656 L 1379.46 348.656 C 1377.66 339.656 1376.77 327.956 1376.77 313.556 L 1376.77 204.656 C 1376.77 180.656 1369.19 161.006 1354.05 145.706 C 1338.9 130.406 1315.42 122.756 1283.62 122.756 C 1257.82 122.756 1236.52 129.731 1219.71 143.681 C 1202.91 157.631 1193.46 174.506 1191.37 194.306 L 1239.07 205.106 C 1240.27 193.406 1244.77 183.881 1252.57 176.531 C 1260.37 169.181 1270.87 165.506 1284.07 165.506 C 1297.87 165.506 1308.21 168.581 1315.12 174.731 C 1322.02 180.881 1325.46 188.906 1325.46 198.806 C 1325.46 207.806 1320.07 213.056 1309.27 214.556 L 1253.02 223.106 C 1233.21 226.106 1217.24 233.231 1205.1 244.481 C 1192.95 255.731 1186.87 270.656 1186.87 289.256 C 1186.87 307.256 1193.69 322.781 1207.35 335.831 Z M 1247.62 306.131 C 1242.07 300.956 1238.97 293.687 1239.07 286.106 C 1239.07 269.61 1248.82 259.71 1268.32 256.406 L 1325.46 247.856 L 1325.46 257.756 C 1325.46 277.858 1320.44 292.333 1310.39 301.181 C 1300.34 310.033 1287.21 314.458 1271.02 314.456 C 1261.12 314.456 1253.32 311.681 1247.62 306.131 Z M 1457.77 323.906 C 1463.77 332.61 1472.62 339.81 1484.32 345.506 C 1496.02 351.202 1509.37 354.052 1524.37 354.056 C 1555.27 354.056 1580.16 343.181 1599.07 321.431 C 1617.96 299.681 1627.41 272.156 1627.41 238.856 C 1627.41 205.556 1618.41 178.181 1600.41 156.731 C 1582.41 135.281 1557.66 124.556 1526.16 124.556 C 1509.96 124.556 1495.71 127.856 1483.41 134.456 C 1471.12 141.056 1462.12 149.306 1456.41 159.206 L 1456.41 129.506 L 1406.02 129.506 L 1406.02 434.156 L 1457.77 434.156 L 1457.77 323.906 Z M 1558.8 288.806 C 1547.84 301.406 1533.66 307.706 1516.27 307.706 C 1498.87 307.706 1484.7 301.406 1473.74 288.806 C 1462.79 276.206 1457.31 259.556 1457.32 238.856 C 1457.32 218.456 1462.79 202.031 1473.74 189.581 C 1484.7 177.131 1498.87 170.906 1516.27 170.906 C 1533.96 170.906 1548.21 177.131 1559.02 189.581 C 1569.82 202.031 1575.21 218.456 1575.21 238.856 C 1575.21 259.556 1569.74 276.206 1558.8 288.806 Z" style="stroke-width: 1;"/>
</svg>