<?xml version="1.0" encoding="utf-8"?>
<svg xmlns="http://www.w3.org/2000/svg" viewBox="255.54 145.007 84.93 24.2" width="84.93px" height="24.2px">
  <path d="M 260.79 145.007 L 256.29 145.007 C 255.876 145.007 255.54 145.343 255.54 145.757 L 255.54 162.257 C 255.54 162.671 255.876 163.007 256.29 163.007 L 260.79 163.007 C 261.204 163.007 261.54 162.671 261.54 162.257 L 261.54 145.757 C 261.54 145.343 261.204 145.007 260.79 145.007 Z" fill="white" transform="matrix(0.9999999999999999, 0, 0, 0.9999999999999999, 0, 0)"/>
  <path d="M 268.79 145.007 L 264.29 145.007 C 263.876 145.007 263.54 145.343 263.54 145.757 L 263.54 168.257 C 263.54 168.671 263.876 169.007 264.29 169.007 L 268.79 169.007 C 269.204 169.007 269.54 168.671 269.54 168.257 L 269.54 145.757 C 269.54 145.343 269.204 145.007 268.79 145.007 Z" fill="white" transform="matrix(0.9999999999999999, 0, 0, 0.9999999999999999, 0, 0)"/>
  <path d="M 289.552 169.207 L 289.552 162.265 L 289.136 162.265 C 288.946 162.612 288.668 162.95 288.304 163.279 C 287.94 163.591 287.472 163.851 286.9 164.059 C 286.346 164.267 285.652 164.371 284.82 164.371 C 283.746 164.371 282.758 164.111 281.856 163.591 C 280.955 163.071 280.236 162.326 279.698 161.355 C 279.161 160.367 278.892 159.18 278.892 157.793 L 278.892 157.403 C 278.892 156.017 279.161 154.838 279.698 153.867 C 280.253 152.879 280.981 152.125 281.882 151.605 C 282.784 151.085 283.763 150.825 284.82 150.825 C 286.068 150.825 287.022 151.051 287.68 151.501 C 288.356 151.952 288.859 152.463 289.188 153.035 L 289.604 153.035 L 289.604 151.189 L 292.23 151.189 L 292.23 169.207 L 289.552 169.207 Z M 285.574 162.031 C 286.753 162.031 287.715 161.659 288.46 160.913 C 289.206 160.168 289.578 159.102 289.578 157.715 L 289.578 157.481 C 289.578 156.112 289.197 155.055 288.434 154.309 C 287.689 153.564 286.736 153.191 285.574 153.191 C 284.43 153.191 283.477 153.564 282.714 154.309 C 281.969 155.055 281.596 156.112 281.596 157.481 L 281.596 157.715 C 281.596 159.102 281.969 160.168 282.714 160.913 C 283.477 161.659 284.43 162.031 285.574 162.031 Z M 299.267 164.241 C 298.296 164.241 297.429 164.025 296.667 163.591 C 295.904 163.158 295.306 162.543 294.873 161.745 C 294.439 160.948 294.223 159.995 294.223 158.885 L 294.223 151.189 L 296.901 151.189 L 296.901 158.703 C 296.901 159.813 297.178 160.636 297.733 161.173 C 298.287 161.693 299.059 161.953 300.047 161.953 C 301.139 161.953 302.014 161.589 302.673 160.861 C 303.349 160.116 303.687 159.05 303.687 157.663 L 303.687 151.189 L 306.365 151.189 L 306.365 164.007 L 303.739 164.007 L 303.739 162.083 L 303.323 162.083 C 303.08 162.603 302.647 163.097 302.023 163.565 C 301.399 164.016 300.48 164.241 299.267 164.241 Z M 315.913 164.371 C 314.665 164.371 313.703 164.146 313.027 163.695 C 312.369 163.245 311.875 162.742 311.545 162.187 L 311.129 162.187 L 311.129 164.007 L 308.503 164.007 L 308.503 145.807 L 311.181 145.807 L 311.181 152.931 L 311.597 152.931 C 311.805 152.585 312.083 152.255 312.429 151.943 C 312.776 151.614 313.235 151.345 313.807 151.137 C 314.379 150.929 315.081 150.825 315.913 150.825 C 316.988 150.825 317.976 151.085 318.877 151.605 C 319.779 152.125 320.498 152.879 321.035 153.867 C 321.573 154.855 321.841 156.034 321.841 157.403 L 321.841 157.793 C 321.841 159.18 321.564 160.367 321.009 161.355 C 320.472 162.326 319.753 163.071 318.851 163.591 C 317.967 164.111 316.988 164.371 315.913 164.371 Z M 315.133 162.031 C 316.295 162.031 317.248 161.659 317.993 160.913 C 318.756 160.168 319.137 159.102 319.137 157.715 L 319.137 157.481 C 319.137 156.112 318.765 155.055 318.019 154.309 C 317.274 153.564 316.312 153.191 315.133 153.191 C 313.989 153.191 313.036 153.564 312.273 154.309 C 311.528 155.055 311.155 156.112 311.155 157.481 L 311.155 157.715 C 311.155 159.102 311.528 160.168 312.273 160.913 C 313.036 161.659 313.989 162.031 315.133 162.031 Z M 323.339 164.007 L 323.339 151.189 L 326.017 151.189 L 326.017 164.007 L 323.339 164.007 Z M 324.691 149.447 C 324.171 149.447 323.729 149.283 323.365 148.953 C 323.019 148.607 322.845 148.165 322.845 147.627 C 322.845 147.09 323.019 146.657 323.365 146.327 C 323.729 145.981 324.171 145.807 324.691 145.807 C 325.229 145.807 325.671 145.981 326.017 146.327 C 326.364 146.657 326.537 147.09 326.537 147.627 C 326.537 148.165 326.364 148.607 326.017 148.953 C 325.671 149.283 325.229 149.447 324.691 149.447 Z M 334.126 164.371 C 332.895 164.371 331.777 164.111 330.772 163.591 C 329.784 163.071 328.995 162.317 328.406 161.329 C 327.834 160.341 327.548 159.154 327.548 157.767 L 327.548 157.429 C 327.548 156.043 327.834 154.864 328.406 153.893 C 328.995 152.905 329.784 152.151 330.772 151.631 C 331.777 151.094 332.895 150.825 334.126 150.825 C 335.356 150.825 336.405 151.051 337.272 151.501 C 338.138 151.952 338.832 152.55 339.352 153.295 C 339.889 154.041 340.236 154.864 340.392 155.765 L 337.792 156.311 C 337.705 155.739 337.523 155.219 337.246 154.751 C 336.968 154.283 336.578 153.911 336.076 153.633 C 335.573 153.356 334.94 153.217 334.178 153.217 C 333.432 153.217 332.756 153.391 332.15 153.737 C 331.56 154.067 331.092 154.552 330.746 155.193 C 330.399 155.817 330.226 156.58 330.226 157.481 L 330.226 157.715 C 330.226 158.617 330.399 159.388 330.746 160.029 C 331.092 160.671 331.56 161.156 332.15 161.485 C 332.756 161.815 333.432 161.979 334.178 161.979 C 335.304 161.979 336.162 161.693 336.752 161.121 C 337.341 160.532 337.714 159.787 337.87 158.885 L 340.47 159.483 C 340.262 160.367 339.889 161.182 339.352 161.927 C 338.832 162.673 338.138 163.271 337.272 163.721 C 336.405 164.155 335.356 164.371 334.126 164.371 Z" fill="white" transform="matrix(0.9999999999999999, 0, 0, 0.9999999999999999, 0, 0)"/>
</svg>